<svg width="1000" height="400" viewBox="0 0 1000 400" fill="none" xmlns="http://www.w3.org/2000/svg">
<path d="M262.661 66.6055C273.123 58.4682 288.008 59.3948 297.38 68.767L363.293 134.68C372.665 144.052 373.592 158.936 365.454 169.399L341.306 200.447L231.613 90.7542L262.661 66.6055Z" fill="white"/>
<path d="M97.7714 169.399C89.6341 158.936 90.5607 144.052 99.9329 134.68L165.846 68.7669C175.218 59.3947 190.102 58.4681 200.564 66.6054L231.613 90.7541L121.92 200.447L97.7714 169.399Z" fill="white"/>
<path d="M200.564 334.288C190.102 342.425 175.218 341.499 165.845 332.127L99.9326 266.214C90.5604 256.842 89.6337 241.957 97.771 231.495L121.92 200.447L231.612 310.14L200.564 334.288Z" fill="white"/>
<path d="M365.454 231.495C373.591 241.957 372.664 256.842 363.292 266.214L297.379 332.127C288.007 341.499 273.123 342.426 262.661 334.288L231.612 310.14L341.305 200.447L365.454 231.495Z" fill="white"/>
<path d="M319.367 178.508L341.305 200.447L231.613 310.14L192.521 271.048L319.367 178.508Z" fill="#0039B7"/>
<path d="M231.613 90.754L341.306 200.447L319.367 222.385L226.128 96.2387L231.613 90.754Z" fill="#0039B7"/>
<path d="M816.825 305.234L865.586 234.516L815.97 163.514H867.012L892.39 202.294L917.199 163.514H965.674L916.628 232.806C948.375 278.049 965.294 302.192 967.385 305.234H916.628L890.394 265.313C887.543 269.685 882.98 276.719 876.707 286.414C870.434 296.109 866.347 302.382 864.446 305.234H816.825Z" fill="white"/>
<path d="M749.517 269.59C758.452 269.59 765.961 266.548 772.044 260.465C778.318 254.382 781.454 245.637 781.454 234.231C781.454 222.825 778.318 214.176 772.044 208.283C765.961 202.199 758.452 199.158 749.517 199.158C740.773 199.158 733.264 202.199 726.99 208.283C720.717 214.366 717.581 223.015 717.581 234.231C717.581 245.447 720.717 254.192 726.99 260.465C733.264 266.548 740.773 269.59 749.517 269.59ZM749.517 159.237C770.999 159.237 788.868 166.27 803.126 180.338C817.574 194.405 824.797 212.37 824.797 234.231C824.797 256.093 817.574 274.152 803.126 288.41C788.868 302.477 770.999 309.511 749.517 309.511C728.226 309.511 710.357 302.382 695.909 288.125C681.461 273.867 674.238 255.903 674.238 234.231C674.238 212.56 681.461 194.69 695.909 180.623C710.357 166.365 728.226 159.237 749.517 159.237Z" fill="white"/>
<path d="M562.834 305.234H520.917V98.7844H563.404V176.916C566.636 172.163 571.959 168.171 579.372 164.939C586.786 161.708 595.151 160.092 604.466 160.092C624.616 160.092 640.585 167.031 652.371 180.908C664.348 194.595 670.336 212.275 670.336 233.946C670.336 255.618 663.967 273.487 651.231 287.554C638.684 301.432 622.525 308.37 602.755 308.37C593.63 308.37 585.551 306.66 578.517 303.238C571.483 299.626 566.256 294.968 562.834 289.265V305.234ZM626.993 234.231C626.993 222.825 623.951 214.176 617.868 208.282C611.785 202.199 604.181 199.158 595.056 199.158C585.931 199.158 578.232 202.199 571.959 208.282C565.875 214.176 562.834 222.825 562.834 234.231C562.834 245.447 565.97 254.192 572.244 260.465C578.517 266.548 586.121 269.59 595.056 269.59C603.991 269.59 611.5 266.548 617.583 260.465C623.856 254.192 626.993 245.447 626.993 234.231Z" fill="white"/>
<path d="M496.745 305.234H453.402V163.514H496.745V305.234ZM457.109 138.135C452.166 133.193 449.695 127.205 449.695 120.171C449.695 113.137 452.166 107.149 457.109 102.206C462.051 97.2637 467.944 94.7924 474.788 94.7924C481.822 94.7924 487.81 97.2637 492.753 102.206C497.885 107.149 500.452 113.137 500.452 120.171C500.452 127.205 497.885 133.193 492.753 138.135C487.81 143.078 481.822 145.549 474.788 145.549C467.944 145.549 462.051 143.078 457.109 138.135Z" fill="white"/>
</svg>
