<?xml version="1.0" encoding="utf-8"?>
<!-- Generator: Adobe Illustrator 24.0.2, SVG Export Plug-In . SVG Version: 6.00 Build 0)  -->
<svg version="1.1" xmlns="http://www.w3.org/2000/svg" xmlns:xlink="http://www.w3.org/1999/xlink" x="0px" y="0px"
	 viewBox="0 0 1308.37 498.52" style="enable-background:new 0 0 1308.37 498.52;" xml:space="preserve">
<style type="text/css">
	.st0{display:none;}
	.st1{fill:#004C85;}
	.st2{display:inline;fill:#FFFFFF;}
	.st3{display:inline;}
	.st4{fill:#FFFFFF;}
</style>
<g id="Слой_1" class="st0">
	<rect x="-383.52" y="-234.14" class="st1" width="2000" height="1000"/>
	<polygon class="st2" points="418.32,385.18 392.85,341.08 247.46,425.02 247.46,257.27 196.53,257.27 196.53,424.91 51.33,341.08 
		25.86,385.18 222.09,498.52 	"/>
	<polygon class="st2" points="0,341.15 50.93,341.22 51.16,173.34 196.31,257.4 221.84,213.33 76.77,129.32 222.09,45.68 
		196.69,1.54 0.26,114.54 	"/>
	<polygon class="st2" points="444.18,341.15 393.25,341.22 393.03,173.34 247.87,257.4 222.34,213.33 367.41,129.32 222.09,45.68 
		247.5,1.54 443.92,114.54 	"/>
	<g class="st3">
		<path class="st4" d="M561.18,56.01c8.82,0,16.38,3.2,22.69,9.58c6.31,6.39,9.46,14.13,9.46,23.21c0,8.97-3.12,16.61-9.37,22.94
			c-6.25,6.33-13.72,9.49-22.41,9.49c-8.94,0-16.57-3.22-22.88-9.67c-6.31-6.45-9.46-14.28-9.46-23.49c0-8.84,3.12-16.4,9.37-22.66
			S552.36,56.01,561.18,56.01z M536.03,138.55h50.3v200.46h-50.3V138.55z"/>
		<path class="st4" d="M681.95,61.17v99.49c9.09-9.09,18.91-15.91,29.48-20.45c10.56-4.54,21.86-6.82,33.9-6.82
			c26.16,0,48.39,9.89,66.7,29.66c18.3,19.78,27.45,45.14,27.45,76.09c0,29.85-9.46,54.81-28.37,74.89
			c-18.92,20.08-41.33,30.12-67.25,30.12c-11.55,0-22.29-2.06-32.24-6.17c-9.95-4.11-19.84-10.84-29.66-20.17v21.19h-49.93V61.17
			H681.95z M734.83,179.82c-15.85,0-28.99,5.41-39.43,16.21c-10.44,10.81-15.66,24.94-15.66,42.38c0,17.81,5.22,32.21,15.66,43.2
			c10.44,10.99,23.58,16.49,39.43,16.49c15.35,0,28.28-5.59,38.78-16.77c10.5-11.17,15.75-25.42,15.75-42.74
			c0-17.19-5.16-31.29-15.48-42.28C763.57,185.32,750.55,179.82,734.83,179.82z"/>
		<path class="st4" d="M975.26,133.39c18.91,0,36.69,4.73,53.34,14.19c16.64,9.46,29.63,22.29,38.97,38.51
			c9.33,16.21,14,33.72,14,52.51c0,18.92-4.7,36.6-14.09,53.06c-9.4,16.46-22.2,29.33-38.42,38.6
			c-16.21,9.27-34.08,13.91-53.61,13.91c-28.74,0-53.28-10.23-73.61-30.68c-20.33-20.45-30.49-45.29-30.49-74.53
			c0-31.32,11.48-57.42,34.45-78.3C925.95,142.48,949.1,133.39,975.26,133.39z M976.09,180.74c-15.63,0-28.64,5.44-39.03,16.31
			c-10.4,10.87-15.59,24.78-15.59,41.73c0,17.44,5.14,31.57,15.41,42.38c10.27,10.81,23.28,16.21,39.03,16.21
			c15.75,0,28.85-5.46,39.31-16.4c10.46-10.93,15.69-24.99,15.69-42.19c0-17.19-5.14-31.17-15.41-41.92
			C1005.22,186.12,992.09,180.74,976.09,180.74z"/>
		<path class="st4" d="M1104.6,138.55h58.4l39.62,54.63l39.42-54.63h57.42l-68.05,94.33l76.96,106.12h-58.4l-47.68-65.75
			l-47.44,65.75h-57.43l76.08-105.45L1104.6,138.55z"/>
	</g>
</g>
<g id="Слой_1__x28_копия_x29_">
	<polygon class="st1" points="418.32,385.18 392.85,341.08 247.46,425.02 247.46,257.27 196.53,257.27 196.53,424.91 51.33,341.08 
		25.86,385.18 222.09,498.52 	"/>
	<polygon class="st1" points="0,341.15 50.93,341.22 51.16,173.34 196.31,257.4 221.84,213.33 76.77,129.32 222.09,45.68 
		196.69,1.54 0.26,114.54 	"/>
	<polygon class="st1" points="444.18,341.15 393.25,341.22 393.03,173.34 247.87,257.4 222.34,213.33 367.41,129.32 222.09,45.68 
		247.5,1.54 443.92,114.54 	"/>
	<g>
		<path class="st1" d="M561.18,56.01c8.82,0,16.38,3.2,22.69,9.58c6.31,6.39,9.46,14.13,9.46,23.21c0,8.97-3.12,16.61-9.37,22.94
			c-6.25,6.33-13.72,9.49-22.41,9.49c-8.94,0-16.57-3.22-22.88-9.67c-6.31-6.45-9.46-14.28-9.46-23.49c0-8.84,3.12-16.4,9.37-22.66
			S552.36,56.01,561.18,56.01z M536.03,138.55h50.3v200.46h-50.3V138.55z"/>
		<path class="st1" d="M681.95,61.17v99.49c9.09-9.09,18.91-15.91,29.48-20.45c10.56-4.54,21.86-6.82,33.9-6.82
			c26.16,0,48.39,9.89,66.7,29.66c18.3,19.78,27.45,45.14,27.45,76.09c0,29.85-9.46,54.81-28.37,74.89
			c-18.92,20.08-41.33,30.12-67.25,30.12c-11.55,0-22.29-2.06-32.24-6.17c-9.95-4.11-19.84-10.84-29.66-20.17v21.19h-49.93V61.17
			H681.95z M734.83,179.82c-15.85,0-28.99,5.41-39.43,16.21c-10.44,10.81-15.66,24.94-15.66,42.38c0,17.81,5.22,32.21,15.66,43.2
			c10.44,10.99,23.58,16.49,39.43,16.49c15.35,0,28.28-5.59,38.78-16.77c10.5-11.17,15.75-25.42,15.75-42.74
			c0-17.19-5.16-31.29-15.48-42.28C763.57,185.32,750.55,179.82,734.83,179.82z"/>
		<path class="st1" d="M975.26,133.39c18.91,0,36.69,4.73,53.34,14.19c16.64,9.46,29.63,22.29,38.97,38.51
			c9.33,16.21,14,33.72,14,52.51c0,18.92-4.7,36.6-14.09,53.06c-9.4,16.46-22.2,29.33-38.42,38.6
			c-16.21,9.27-34.08,13.91-53.61,13.91c-28.74,0-53.28-10.23-73.61-30.68c-20.33-20.45-30.49-45.29-30.49-74.53
			c0-31.32,11.48-57.42,34.45-78.3C925.95,142.48,949.1,133.39,975.26,133.39z M976.09,180.74c-15.63,0-28.64,5.44-39.03,16.31
			c-10.4,10.87-15.59,24.78-15.59,41.73c0,17.44,5.14,31.57,15.41,42.38c10.27,10.81,23.28,16.21,39.03,16.21
			c15.75,0,28.85-5.46,39.31-16.4c10.46-10.93,15.69-24.99,15.69-42.19c0-17.19-5.14-31.17-15.41-41.92
			C1005.22,186.12,992.09,180.74,976.09,180.74z"/>
		<path class="st1" d="M1104.6,138.55h58.4l39.62,54.63l39.42-54.63h57.42l-68.05,94.33l76.96,106.12h-58.4l-47.68-65.75
			l-47.44,65.75h-57.43l76.08-105.45L1104.6,138.55z"/>
	</g>
</g>
</svg>
