<svg width="1000" height="400" viewBox="0 0 1000 400" fill="none" xmlns="http://www.w3.org/2000/svg">
<path d="M261.496 66.5834C271.958 58.4461 286.842 59.3727 296.214 68.7449L362.127 134.658C371.499 144.03 372.426 158.914 364.289 169.376L340.14 200.425L230.447 90.732L261.496 66.5834Z" fill="#2563EB"/>
<path d="M96.6059 169.376C88.4686 158.914 89.3952 144.03 98.7674 134.658L164.68 68.7448C174.052 59.3727 188.937 58.446 199.399 66.5833L230.447 90.732L120.755 200.425L96.6059 169.376Z" fill="#2563EB"/>
<path d="M199.399 334.266C188.937 342.403 174.052 341.477 164.68 332.105L98.7673 266.192C89.3951 256.82 88.4685 241.935 96.6058 231.473L120.754 200.425L230.447 310.117L199.399 334.266Z" fill="#2563EB"/>
<path d="M364.288 231.473C372.425 241.935 371.499 256.82 362.127 266.192L296.214 332.105C286.842 341.477 271.957 342.404 261.495 334.266L230.447 310.118L340.14 200.425L364.288 231.473Z" fill="#2563EB"/>
<path d="M318.201 178.486L340.14 200.425L230.447 310.118L191.355 271.026L318.201 178.486Z" fill="#0039B7"/>
<path d="M230.447 90.7321L340.14 200.425L318.201 222.363L224.963 96.2167L230.447 90.7321Z" fill="#0039B7"/>
<path d="M815.66 305.212L864.421 234.494L814.804 163.492H865.847L891.225 202.272L916.033 163.492H964.509L915.463 232.783C947.21 278.027 964.129 302.17 966.22 305.212H915.463L889.229 265.291C886.377 269.663 881.815 276.697 875.542 286.392C869.268 296.087 865.181 302.36 863.28 305.212H815.66Z" fill="#2563EB"/>
<path d="M748.352 269.568C757.287 269.568 764.796 266.526 770.879 260.443C777.152 254.36 780.289 245.615 780.289 234.209C780.289 222.803 777.152 214.154 770.879 208.26C764.796 202.177 757.287 199.136 748.352 199.136C739.607 199.136 732.098 202.177 725.825 208.26C719.552 214.344 716.415 222.993 716.415 234.209C716.415 245.425 719.552 254.17 725.825 260.443C732.098 266.526 739.607 269.568 748.352 269.568ZM748.352 159.214C769.833 159.214 787.703 166.248 801.96 180.316C816.408 194.383 823.632 212.348 823.632 234.209C823.632 256.071 816.408 274.13 801.96 288.388C787.703 302.455 769.833 309.489 748.352 309.489C727.061 309.489 709.191 302.36 694.744 288.103C680.296 273.845 673.072 255.881 673.072 234.209C673.072 212.538 680.296 194.668 694.744 180.601C709.191 166.343 727.061 159.214 748.352 159.214Z" fill="#2563EB"/>
<path d="M561.668 305.212H519.751V98.7623H562.238V176.894C565.47 172.141 570.793 168.149 578.207 164.917C585.621 161.686 593.985 160.07 603.3 160.07C623.451 160.07 639.419 167.009 651.206 180.886C663.182 194.573 669.17 212.252 669.17 233.924C669.17 255.595 662.802 273.465 650.065 287.532C637.518 301.41 621.36 308.348 601.589 308.348C592.465 308.348 584.385 306.637 577.352 303.216C570.318 299.604 565.09 294.946 561.668 289.243V305.212ZM625.827 234.209C625.827 222.803 622.786 214.153 616.702 208.26C610.619 202.177 603.015 199.136 593.89 199.136C584.765 199.136 577.066 202.177 570.793 208.26C564.71 214.153 561.668 222.803 561.668 234.209C561.668 245.425 564.805 254.17 571.078 260.443C577.351 266.526 584.956 269.568 593.89 269.568C602.825 269.568 610.334 266.526 616.417 260.443C622.691 254.17 625.827 245.425 625.827 234.209Z" fill="#2563EB"/>
<path d="M495.579 305.212H452.236V163.492H495.579V305.212ZM455.943 138.113C451.001 133.171 448.529 127.182 448.529 120.149C448.529 113.115 451.001 107.127 455.943 102.184C460.886 97.2415 466.779 94.7702 473.623 94.7702C480.656 94.7702 486.645 97.2415 491.587 102.184C496.72 107.127 499.286 113.115 499.286 120.149C499.286 127.182 496.72 133.171 491.587 138.113C486.645 143.056 480.656 145.527 473.623 145.527C466.779 145.527 460.886 143.056 455.943 138.113Z" fill="#2563EB"/>
</svg>
